# xmcd
#
# Track frame offsets:
#	150
#	16861
#	34533
#	54024
#	73097
#	90141
#	104425
#	126452
#	143018
#	162122
#	178833
#	196505
#	215996
#	235069
#	252113
#	266397
#	288424
#	304990
#
# Disc length: 4321 seconds
#
# Revision: 1
# Processed by: cddbd v1.5.2PL0 Copyright (c) Steve Scherf et al.
# Submitted via: audiograbber 1.83.01
#
DISCID=f210df12
DTITLE=Various Artist - PHM0610-P
DYEAR=2006
DGENRE=karaoke
TTITLE0=London Bridge - Fergie
TTITLE1=Too Little Too Late - Jo Jo
TTITLE2=Maneater - Nelly Furtado
TTITLE3=Far Away - Nickelback
TTITLE4=Make Damn Sure - Taking Back Sunday
TTITLE5=Rock On - Def Leppard
TTITLE6=Land Of Confusion Disturbed
TTITLE7=King Of All Excuses - Staind
TTITLE8=I Can't Hate You Aymore - Nick Lachey
TTITLE9=London Bridge - Fergie (ocal)
TTITLE10=Too Little Too Late - Jo Jo (vocal)
TTITLE11=Maneater - Nelly Furtado (vocal)
TTITLE12=Far Away - Nickelback (vocal)
TTITLE13=Make Damn Sure - Taking Back Sunday (vocal)
TTITLE14=Rock On - Def Leppard (vocal)
TTITLE15=Land Of Confusion - Disturbed (vocal)
TTITLE16=King Of All Excuses - Staind (vocal)
TTITLE17=I Can't Hate You Anymore - Nick Lachey (vocal)
EXTD=
EXTT0=
EXTT1=
EXTT2=
EXTT3=
EXTT4=
EXTT5=
EXTT6=
EXTT7=
EXTT8=
EXTT9=
EXTT10=
EXTT11=
EXTT12=
EXTT13=
EXTT14=
EXTT15=
EXTT16=
EXTT17=
PLAYORDER=
